<?xml version="1.0" encoding="utf-8"?><!DOCTYPE svg PUBLIC "-//W3C//DTD SVG 1.1//EN" "http://www.w3.org/Graphics/SVG/1.1/DTD/svg11.dtd"><svg version="1.1" id="Contours" xmlns="http://www.w3.org/2000/svg" xmlns:xlink="http://www.w3.org/1999/xlink" x="0px" y="0px" width="360.172546px" height="360.172546px" viewBox="0.000001 0.000000 360.172546 276.031860" enable-background="new 0 0 360.172546 360.172546" xml:space="preserve" stroke="black" fill="none" stroke-linecap='round' stroke-linejoin='round'><path class="selected"  fill="#000000" opacity="1.000000" stroke="none" 
 	d="
M93.935848 180.365865 C79.715002 185.670669 66.129562 192.676513 53.561538 201.186399 C51.399769 202.650146 49.171094 204.272210 48.101058 206.653559 C46.836716 209.467333 47.449569 212.730497 48.134572 215.738262 C52.410022 234.511249 58.644902 252.837370 66.705186 270.322687 C68.303811 273.790611 63.133370 277.183758 59.634002 275.655190 C56.134634 274.126622 54.483370 270.184655 53.159247 266.602924 C46.368689 248.234580 39.578131 229.866235 32.787574 211.497891 C30.703137 205.859525 28.600624 200.144755 28.010400 194.162474 C24.133357 154.866235 15.063034 116.085521 1.109500 79.146047 C-0.471791 74.959862 -0.901886 68.458821 3.519191 67.766928 C6.666639 67.274357 8.929020 70.643075 10.209465 73.560183 C15.458184 85.517805 18.882509 98.274245 20.327658 111.252893 C21.192630 119.021067 22.989293 128.890452 30.642013 130.480604 C25.993083 90.573194 27.464594 47.252176 50.509941 14.341298 C56.499410 5.787785 66.389519 -2.571751 76.291615 0.742584 C86.826818 4.268826 89.168546 18.014771 88.682873 29.113825 C86.573200 77.325994 65.636795 122.448320 45.073121 166.106071 C42.468678 171.635438 39.798197 177.692238 41.149599 183.653004 C42.501002 189.613770 50.008559 194.327967 54.905092 190.669966 C70.390566 179.101392 88.955511 171.695010 108.151614 169.427560 C112.369679 168.929322 112.431880 162.832649 111.271639 158.746802 C107.936959 147.003571 104.602280 135.260341 101.267602 123.517111 C99.975371 118.966457 106.472066 116.556124 111.199056 116.372067 C126.813112 115.764101 142.427167 115.156133 158.041223 114.548166 C162.484281 114.375165 167.690257 114.551346 170.296463 118.153898 C173.078427 121.999402 171.205475 127.340432 169.255082 131.667462 C162.806396 145.974145 156.357712 160.280827 149.909027 174.587510 C147.582295 179.749462 151.879173 185.942742 157.244299 187.752395 C162.609426 189.562048 168.468644 188.277467 173.980347 186.981106 C176.298513 186.435870 178.794227 185.782421 180.282986 183.923719 C181.550655 182.341045 181.819976 180.205800 182.041661 178.190186 C186.338169 139.125327 190.634678 100.060469 194.931186 60.995611 C195.318452 57.474503 191.801550 54.482982 188.272676 54.174403 C184.743802 53.865824 181.353330 55.490414 178.270159 57.234614 C162.729844 66.026024 149.625848 79.074510 140.768548 94.577365 C139.503147 96.792185 135.675957 95.592160 134.866286 93.173255 C134.056616 90.754351 135.212934 88.152402 136.434961 85.913358 C146.882243 66.771448 164.450832 51.624388 184.922280 44.109185 C188.580325 42.766292 192.528795 41.647946 196.334697 42.484469 C200.140599 43.320991 203.638257 46.735118 203.276236 50.615015 C199.318995 93.026055 195.361754 135.437095 191.404513 177.848134 C191.247302 179.533018 191.132209 181.384155 192.120274 182.757937 C193.108339 184.131718 195.659917 184.345870 196.269345 182.767217 C199.636692 174.044492 203.004038 165.321767 206.371385 156.599042 C207.470391 153.752192 209.527976 150.328257 212.527225 150.891169 C215.104024 151.374793 216.101968 154.468842 216.604462 157.042029 C218.476800 166.629957 220.349138 176.217885 222.221476 185.805812 C222.963422 189.605192 223.764079 193.542357 226.056530 196.661722 C228.348982 199.781086 232.590770 201.828367 236.177472 200.371886 C238.761661 199.322503 240.389672 196.793270 241.780659 194.375752 C248.748360 182.265981 254.031507 169.188515 257.430640 155.637082 C260.929344 153.699203 263.959180 158.866545 264.673497 162.801778 C266.807038 174.555697 268.940582 186.309616 271.074126 198.063534 C276.521443 197.398589 278.376154 190.645114 279.774500 185.338510 C281.172846 180.031907 285.939005 173.822680 290.841997 176.287651 C296.129808 178.946090 294.757603 189.157216 300.580877 190.214436 C301.845658 190.444058 303.147985 190.101846 304.334941 189.608355 C314.367127 185.437357 316.725840 172.529581 317.488346 161.691658 C318.250853 150.853736 320.107904 138.008461 329.868555 133.236495 C333.155495 131.629515 337.386484 131.353634 340.272200 133.602854 C343.157917 135.852074 343.559563 141.023424 340.456406 142.961662 C330.326764 149.288652 331.287134 164.816690 337.280315 175.147335 C343.273495 185.477981 352.844412 193.632563 357.424340 204.662736 C362.120682 215.973265 360.719559 229.611488 353.821615 239.730880 C346.923672 249.850273 334.741235 256.139349 322.496750 255.902068 C333.525542 250.181405 345.429916 243.515481 349.892023 231.920228 C356.487627 214.780865 343.778643 196.720607 331.520763 183.045661 C329.631481 180.937970 327.558765 178.731045 324.804356 178.079146 C322.049947 177.427247 318.565137 179.198106 318.574130 182.028593 C318.597937 189.521788 313.198923 196.708051 305.995358 198.771348 C298.791793 200.834644 290.406934 197.596456 286.460081 191.226928 C284.478422 195.880355 282.337301 200.744891 278.326443 203.826186 C274.315586 206.907481 267.826990 207.388516 264.621321 203.476351 C261.754271 199.977433 262.616305 194.762504 260.942083 190.560197 C259.267861 186.357891 251.420198 184.968663 251.361332 189.491819 C251.216569 200.614968 239.868487 210.209033 228.876228 208.501511 C217.883968 206.793989 209.981070 194.209505 213.217415 183.566598 C214.057558 180.803739 210.069374 178.620472 207.452982 179.842651 C204.836590 181.064831 203.578777 184.010678 202.544948 186.707052 C200.732433 191.434357 198.919916 196.161660 197.107400 200.888964 C195.565318 204.910937 193.699426 209.297055 189.815253 211.159173 C185.931080 213.021292 179.949902 209.936642 181.036624 205.768511 C182.858073 198.782325 173.458667 194.138026 166.262505 194.720876 C159.066343 195.303726 151.083278 197.893648 145.142943 193.790370 C136.656151 187.928130 140.259652 174.809481 144.736885 165.517233 C150.664085 153.215658 156.591285 140.914084 162.518486 128.612509 C163.664898 126.233194 161.824348 123.283415 159.384561 122.272056 C156.944774 121.260698 154.179805 121.636823 151.568091 122.029702 C140.987360 123.621359 130.406630 125.213015 119.825899 126.804672 C117.230050 127.195164 114.310241 127.788486 112.915595 130.012420 C111.712212 131.931364 112.083238 134.406820 112.559095 136.621325 C116.344776 154.238784 124.062948 170.742125 129.316961 187.978760 C134.570974 205.215394 137.262548 224.163315 130.923447 241.031096 C119.515660 228.094519 122.062823 208.545121 119.027374 191.566350 C118.313695 187.574388 117.109527 183.395920 114.063508 180.718820 C108.757269 176.055245 100.554686 177.896840 93.935848 180.365865 M62.703105 11.955333 C57.324669 15.973499 53.502031 21.723283 50.334554 27.642769 C31.069212 63.646476 33.243080 106.868261 36.145476 147.599041 C36.424168 151.510063 37.526995 156.408367 41.376773 157.151989 C60.829405 116.463215 80.652721 74.337026 82.430427 29.272399 C82.601121 24.945336 82.578607 20.478988 80.939531 16.470742 C79.300455 12.462495 75.681333 8.983240 71.357679 8.741104 C68.220709 8.565426 65.220127 10.074896 62.703105 11.955333 z"/></svg>